<?xml version="1.0" encoding="utf-8"?>
<svg width="20" height="20" viewBox="0 0 20 20" fill="none" xmlns="http://www.w3.org/2000/svg">
  <g transform="matrix(1, 0, 0, 1, -0.444901, -0.298993)">
    <g>
      <rect x="0.517" y="0.428" width="19.953" height="20.037" style="stroke: rgb(0, 0, 0); fill: rgb(3, 3, 3);"/>
    </g>
  </g>
  <g style="transform-origin: 10px 10px;" transform="matrix(0.707107, 0.707107, -0.707107, 0.707107, 0, 0)">
    <path fill-rule="evenodd" clip-rule="evenodd" d="M10 5.78947C8.83722 5.78947 7.78916 6.257 7.02416 7.02126C6.25817 7.78651 5.78947 8.83577 5.78947 10C5.78947 12.3254 7.67459 14.2105 10 14.2105C11.1642 14.2105 12.2135 13.7418 12.9787 12.9758C13.743 12.2108 14.2105 11.1628 14.2105 10C14.2105 8.81794 13.7272 7.75392 12.94 6.98583C12.1782 6.24264 11.1449 5.78947 10 5.78947ZM2.93236 2.92551C4.73857 1.12104 7.24113 0 10 0C12.7157 0 15.1836 1.08639 16.9829 2.84187C18.8409 4.65456 20 7.1945 20 10C20 12.7589 18.879 15.2614 17.0745 17.0676C15.2678 18.8761 12.7624 20 10 20C4.47715 20 0 15.5228 0 10C0 7.23762 1.12388 4.73225 2.93236 2.92551Z" fill="#815F00"/>
    <circle cx="15.5263" cy="5.52633" r="2.89474" fill="#694D00"/>
    <path fill-rule="evenodd" clip-rule="evenodd" d="M10 5.78947C8.83726 5.78947 7.7892 6.257 7.02419 7.02126C5.89319 8.15118 4.06034 8.1503 2.93042 7.01929C1.8005 5.88828 1.80138 4.05543 2.93239 2.92551C4.7386 1.12104 7.24117 0 10 0C12.7158 0 15.1836 1.08639 16.983 2.84187C18.1273 3.95831 18.1499 5.79102 17.0335 6.93534C15.917 8.07966 14.0843 8.10227 12.94 6.98583C12.1782 6.24264 11.145 5.78947 10 5.78947Z" fill="#BD7229"/>
    <circle cx="5.52633" cy="4.47369" r="2.89474" fill="#815F00"/>
    <path fill-rule="evenodd" clip-rule="evenodd" d="M7.02613 2.92748C8.15605 4.05849 8.15517 5.89134 7.02416 7.02126C6.25817 7.7865 5.78947 8.83577 5.78947 10C5.78947 12.3254 7.67459 14.2105 10 14.2105C11.1642 14.2105 12.2135 13.7418 12.9787 12.9758C14.1087 11.8448 15.9415 11.8439 17.0725 12.9739C18.2035 14.1038 18.2044 15.9366 17.0745 17.0676C15.2678 18.8761 12.7624 20 10 20C4.47715 20 0 15.5228 0 10C0 7.23762 1.12388 4.73224 2.93236 2.92551C4.06337 1.79559 5.89621 1.79647 7.02613 2.92748Z" fill="#FDC300"/>
    <circle cx="15" cy="15" r="2.89474" fill="white"/>
  </g>
  <text style="fill: rgb(251, 251, 251); font-family: Arial, sans-serif; font-size: 28px; white-space: pre;" transform="matrix(0.791625, 0, 0, 0.804233, 1.968811, 8.693329)" x="2.278" y="10.789">?</text>
</svg>